<?xml version="1.0" encoding="UTF-8" standalone="no"?>
<svg width="739px" height="478px" viewBox="0 0 739 478" version="1.1" xmlns="http://www.w3.org/2000/svg" xmlns:xlink="http://www.w3.org/1999/xlink" xmlns:sketch="http://www.bohemiancoding.com/sketch/ns">
    <!-- Generator: Sketch 3.2.2 (9983) - http://www.bohemiancoding.com/sketch -->
    <title>code-island-no-logo</title>
    <desc>Created with Sketch.</desc>
    <defs></defs>
    <g id="Page-1" stroke="none" stroke-width="1" fill="none" fill-rule="evenodd" sketch:type="MSPage">
        <g id="code-island-no-logo" sketch:type="MSArtboardGroup" fill="#2F3D4A">
            <g id="Group" sketch:type="MSLayerGroup" transform="translate(15.000000, 42.000000)">
                <g id="CODE-+-ISLAND" transform="translate(8.000000, 0.000000)" sketch:type="MSShapeGroup">
                    <path d="M153.262267,141.626315 L130.162834,118.274111 C117.198866,130.068153 105.64915,137.61634 86.7924696,137.61634 C58.5074494,137.61634 38.9436437,114.028255 38.9436437,85.7225532 L38.9436437,85.2507915 C38.9436437,56.9450894 58.9788664,33.828766 86.7924696,33.828766 C103.292065,33.828766 116.256032,40.9051915 128.984291,52.4633532 L152.083725,25.808817 C136.762672,10.7124426 118.1417,0.333685106 87.0281781,0.333685106 C36.3508502,0.333685106 0.994574899,38.7822638 0.994574899,85.7225532 L0.994574899,86.1943149 C0.994574899,133.606366 37.0579757,171.111421 85.6139271,171.111421 C117.434575,171.111421 136.291255,159.78914 153.262267,141.626315 L153.262267,141.626315 Z M350.314575,85.7225532 L350.314575,85.2507915 C350.314575,38.3105021 313.779757,0.333685106 262.866721,0.333685106 C211.953684,0.333685106 174.947449,38.7822638 174.947449,85.7225532 L174.947449,86.1943149 C174.947449,133.134604 211.482267,171.111421 262.395304,171.111421 C313.30834,171.111421 350.314575,132.662843 350.314575,85.7225532 L350.314575,85.7225532 Z M312.365506,86.1943149 C312.365506,114.500017 292.094575,137.61634 262.866721,137.61634 C233.638866,137.61634 212.896518,114.028255 212.896518,85.7225532 L212.896518,85.2507915 C212.896518,56.9450894 233.167449,33.828766 262.395304,33.828766 C291.623158,33.828766 312.365506,57.4168511 312.365506,85.7225532 L312.365506,86.1943149 Z M534.638623,85.7225532 L534.638623,85.2507915 C534.638623,38.7822638 498.810931,3.16425532 446.955061,3.16425532 L382.60664,3.16425532 L382.60664,168.280851 L446.955061,168.280851 C498.810931,168.280851 534.638623,132.191081 534.638623,85.7225532 L534.638623,85.7225532 Z M496.689555,86.1943149 C496.689555,115.44354 476.654332,135.493413 446.955061,135.493413 L418.905749,135.493413 L418.905749,35.9516936 L446.955061,35.9516936 C476.654332,35.9516936 496.689555,56.4733277 496.689555,85.7225532 L496.689555,86.1943149 Z M692.56332,168.280851 L692.56332,135.965174 L602.994089,135.965174 L602.994089,101.290689 L680.777895,101.290689 L680.777895,68.9750128 L602.994089,68.9750128 L602.994089,35.4799319 L691.384777,35.4799319 L691.384777,3.16425532 L566.930688,3.16425532 L566.930688,168.280851 L692.56332,168.280851 Z" id="CODE"></path>
                    <path d="M9.43983806,206.251915 L9.43983806,335.123404 L23.9732794,335.123404 L23.9732794,206.251915 L9.43983806,206.251915 Z M72.908664,238.469787 C72.908664,226.687251 83.5787854,217.482145 100.319838,217.482145 C113.565506,217.482145 125.523401,221.716494 137.481296,231.473906 L145.943806,220.243677 C132.882105,209.749855 119.45247,204.410894 100.687773,204.410894 C76.220081,204.410894 58.3752227,219.139064 58.3752227,239.758502 C58.3752227,261.114349 71.9888259,270.68766 101.607611,277.131234 C128.65085,282.8384 135.089717,289.650179 135.089717,301.800919 C135.089717,314.87217 123.683725,323.893174 106.390769,323.893174 C88.5459109,323.893174 75.6681781,317.817804 62.2385425,305.667064 L53.2241296,316.344987 C68.6774089,330.152647 85.4184615,336.964426 105.838866,336.964426 C131.410364,336.964426 149.807126,322.60446 149.807126,300.328102 C149.807126,280.445072 136.561457,269.951251 107.86251,263.691779 C79.531498,257.616409 72.908664,250.80463 72.908664,238.469787 L72.908664,238.469787 Z M179.425911,335.123404 L266.442591,335.123404 L266.442591,321.683949 L193.959352,321.683949 L193.959352,206.251915 L179.425911,206.251915 L179.425911,335.123404 Z M354.563077,205.331404 L340.949474,205.331404 L282.263806,335.123404 L297.165182,335.123404 L312.434494,301.064511 L382.526154,301.064511 L397.611498,335.123404 L413.248745,335.123404 L354.563077,205.331404 Z M376.823158,287.99326 L318.13749,287.99326 L347.572308,222.2688 L376.823158,287.99326 Z M533.379595,309.533209 L452.249879,206.251915 L438.636275,206.251915 L438.636275,335.123404 L452.801781,335.123404 L452.801781,229.448783 L535.955142,335.123404 L547.545101,335.123404 L547.545101,206.251915 L533.379595,206.251915 L533.379595,309.533209 Z M697.110769,270.503557 C697.110769,234.051336 669.147692,206.251915 628.674818,206.251915 L583.970688,206.251915 L583.970688,335.123404 L628.674818,335.123404 C669.147692,335.123404 697.110769,306.955779 697.110769,270.503557 L697.110769,270.503557 Z M682.025425,270.871762 C682.025425,299.591694 661.237085,321.683949 628.674818,321.683949 L598.50413,321.683949 L598.50413,219.69137 L628.674818,219.69137 C661.237085,219.69137 682.025425,242.15183 682.025425,270.871762 L682.025425,270.871762 Z" id="ISLAND"></path>
                </g>
                <path d="M16.3238624,372.234756 L13.250158,372.234756 L0,401.51802 L3.36446018,401.51802 L6.81199345,393.833759 L22.6374173,393.833759 L26.043414,401.51802 L29.5740203,401.51802 L16.3238624,372.234756 Z M21.3497844,390.884665 L8.09962636,390.884665 L14.7454736,376.056118 L21.3497844,390.884665 Z M72.6889545,396.907464 L70.5290541,394.7891 C67.7461056,397.447439 65.1293032,398.984291 61.1417949,398.984291 C54.7451669,398.984291 49.8853911,393.70915 49.8853911,386.938693 C49.8853911,380.168236 54.7036303,374.976168 61.1417949,374.976168 C65.0877667,374.976168 67.8291787,376.63763 70.2798349,378.963676 L72.5228083,376.554557 C69.6152501,373.813145 66.4584727,371.944 61.1833314,371.944 C52.6268031,371.944 46.4793943,378.714457 46.4793943,387.021766 C46.4793943,395.412148 52.6683396,402.016459 61.0587218,402.016459 C66.3338631,402.016459 69.6567867,399.981168 72.6889545,396.907464 L72.6889545,396.907464 Z M106.790458,386.938693 C106.790458,378.880603 100.850732,371.944 92.0034481,371.944 C83.156164,371.944 77.1333649,378.963676 77.1333649,387.021766 C77.1333649,395.079856 83.0730909,402.016459 91.920375,402.016459 C100.767659,402.016459 106.790458,394.996783 106.790458,386.938693 L106.790458,386.938693 Z M103.384462,387.021766 C103.384462,393.667613 98.6492954,398.984291 92.0034481,398.984291 C85.3576009,398.984291 80.5393616,393.58454 80.5393616,386.938693 C80.5393616,380.292846 85.2745278,374.976168 91.920375,374.976168 C98.5662223,374.976168 103.384462,380.375919 103.384462,387.021766 L103.384462,387.021766 Z M139.272037,386.938693 C139.272037,378.714457 132.958482,372.442439 123.820442,372.442439 L113.727061,372.442439 L113.727061,401.51802 L123.820442,401.51802 C132.958482,401.51802 139.272037,395.162929 139.272037,386.938693 L139.272037,386.938693 Z M135.86604,387.021766 C135.86604,393.501467 131.17241,398.485853 123.820442,398.485853 L117.008448,398.485853 L117.008448,375.474606 L123.820442,375.474606 C131.17241,375.474606 135.86604,380.542065 135.86604,387.021766 L135.86604,387.021766 Z M167.226132,372.442439 L146.20864,372.442439 L146.20864,401.51802 L167.433815,401.51802 L167.433815,398.527389 L149.490027,398.527389 L149.490027,388.350935 L165.356987,388.350935 L165.356987,385.360304 L149.490027,385.360304 L149.490027,375.43307 L167.226132,375.43307 L167.226132,372.442439 Z M207.391971,372.442439 L186.499089,372.442439 L186.499089,401.51802 L189.780476,401.51802 L189.780476,388.849374 L205.522827,388.849374 L205.522827,385.858743 L189.780476,385.858743 L189.780476,375.474606 L207.391971,375.474606 L207.391971,372.442439 Z M242.116523,386.938693 C242.116523,378.880603 236.176797,371.944 227.329513,371.944 C218.482229,371.944 212.45943,378.963676 212.45943,387.021766 C212.45943,395.079856 218.399156,402.016459 227.24644,402.016459 C236.093724,402.016459 242.116523,394.996783 242.116523,386.938693 L242.116523,386.938693 Z M238.710527,387.021766 C238.710527,393.667613 233.97536,398.984291 227.329513,398.984291 C220.683666,398.984291 215.865427,393.58454 215.865427,386.938693 C215.865427,380.292846 220.600593,374.976168 227.24644,374.976168 C233.892287,374.976168 238.710527,380.375919 238.710527,387.021766 L238.710527,387.021766 Z M273.102786,401.51802 L264.172429,389.638568 C268.741449,388.807837 272.064373,385.983352 272.064373,381.123577 C272.064373,375.889972 267.952255,372.442439 261.555627,372.442439 L249.053126,372.442439 L249.053126,401.51802 L252.334514,401.51802 L252.334514,390.22008 L260.641823,390.22008 L269.073741,401.51802 L273.102786,401.51802 Z M268.741449,381.248186 C268.741449,385.028012 265.626208,387.270985 261.264871,387.270985 L252.334514,387.270985 L252.334514,375.474606 L261.306407,375.474606 C266.000037,375.474606 268.741449,377.634507 268.741449,381.248186 L268.741449,381.248186 Z M305.376682,372.234756 L302.302978,372.234756 L289.05282,401.51802 L292.41728,401.51802 L295.864813,393.833759 L311.690237,393.833759 L315.096234,401.51802 L318.62684,401.51802 L305.376682,372.234756 Z M310.402604,390.884665 L297.152446,390.884665 L303.798293,376.056118 L310.402604,390.884665 Z M348.906982,377.966799 L348.906982,401.51802 L352.188369,401.51802 L352.188369,372.442439 L348.865445,372.442439 L338.273626,388.309399 L327.681807,372.442439 L324.358883,372.442439 L324.358883,401.51802 L327.557197,401.51802 L327.557197,378.008336 L338.149016,393.543004 L338.315163,393.543004 L348.906982,377.966799 Z M381.430097,372.442439 L360.412605,372.442439 L360.412605,401.51802 L381.637779,401.51802 L381.637779,398.527389 L363.693992,398.527389 L363.693992,388.350935 L379.560952,388.350935 L379.560952,385.360304 L363.693992,385.360304 L363.693992,375.43307 L381.430097,375.43307 L381.430097,372.442439 Z M412.29175,401.51802 L403.361393,389.638568 C407.930413,388.807837 411.253336,385.983352 411.253336,381.123577 C411.253336,375.889972 407.141218,372.442439 400.74459,372.442439 L388.24209,372.442439 L388.24209,401.51802 L391.523477,401.51802 L391.523477,390.22008 L399.830786,390.22008 L408.262705,401.51802 L412.29175,401.51802 Z M407.930413,381.248186 C407.930413,385.028012 404.815172,387.270985 400.453835,387.270985 L391.523477,387.270985 L391.523477,375.474606 L400.495371,375.474606 C405.189001,375.474606 407.930413,377.634507 407.930413,381.248186 L407.930413,381.248186 Z M418.563768,372.442439 L418.563768,401.51802 L421.845155,401.51802 L421.845155,372.442439 L418.563768,372.442439 Z M455.282074,396.907464 L453.122174,394.7891 C450.339226,397.447439 447.722423,398.984291 443.734915,398.984291 C437.338287,398.984291 432.478511,393.70915 432.478511,386.938693 C432.478511,380.168236 437.29675,374.976168 443.734915,374.976168 C447.680887,374.976168 450.422299,376.63763 452.872955,378.963676 L455.115928,376.554557 C452.20837,373.813145 449.051593,371.944 443.776451,371.944 C435.219923,371.944 429.072514,378.714457 429.072514,387.021766 C429.072514,395.412148 435.26146,402.016459 443.651842,402.016459 C448.926983,402.016459 452.249907,399.981168 455.282074,396.907464 L455.282074,396.907464 Z M474.845787,372.234756 L471.772083,372.234756 L458.521925,401.51802 L461.886385,401.51802 L465.333918,393.833759 L481.159342,393.833759 L484.565339,401.51802 L488.095945,401.51802 L474.845787,372.234756 Z M479.871709,390.884665 L466.621551,390.884665 L473.267399,376.056118 L479.871709,390.884665 Z M528.054102,381.705088 C528.054102,375.931508 523.734301,372.442439 517.171527,372.442439 L506.288952,372.442439 L506.288952,401.51802 L509.570339,401.51802 L509.570339,391.258494 L516.631552,391.258494 C522.820497,391.258494 528.054102,388.018643 528.054102,381.705088 L528.054102,381.705088 Z M524.731178,381.829698 C524.731178,385.692597 521.574401,388.267862 516.756162,388.267862 L509.570339,388.267862 L509.570339,375.474606 L516.922308,375.474606 C521.615938,375.474606 524.731178,377.634507 524.731178,381.829698 L524.731178,381.829698 Z M547.867034,372.234756 L544.79333,372.234756 L531.543172,401.51802 L534.907632,401.51802 L538.355165,393.833759 L554.180589,393.833759 L557.586586,401.51802 L561.117192,401.51802 L547.867034,372.234756 Z M552.892956,390.884665 L539.642798,390.884665 L546.288646,376.056118 L552.892956,390.884665 Z M590.898895,401.51802 L581.968538,389.638568 C586.537558,388.807837 589.860482,385.983352 589.860482,381.123577 C589.860482,375.889972 585.748364,372.442439 579.351736,372.442439 L566.849236,372.442439 L566.849236,401.51802 L570.130623,401.51802 L570.130623,390.22008 L578.437932,390.22008 L586.86985,401.51802 L590.898895,401.51802 Z M586.537558,381.248186 C586.537558,385.028012 583.422317,387.270985 579.06098,387.270985 L570.130623,387.270985 L570.130623,375.474606 L579.102516,375.474606 C583.796146,375.474606 586.537558,377.634507 586.537558,381.248186 L586.537558,381.248186 Z M607.887342,375.474606 L617.648431,375.474606 L617.648431,372.442439 L594.803331,372.442439 L594.803331,375.474606 L604.564419,375.474606 L604.564419,401.51802 L607.887342,401.51802 L607.887342,375.474606 Z M645.18716,395.744441 L626.869544,372.442439 L623.795839,372.442439 L623.795839,401.51802 L626.994153,401.51802 L626.994153,377.676043 L645.768672,401.51802 L648.385474,401.51802 L648.385474,372.442439 L645.18716,372.442439 L645.18716,395.744441 Z M677.627202,372.442439 L656.60971,372.442439 L656.60971,401.51802 L677.834885,401.51802 L677.834885,398.527389 L659.891097,398.527389 L659.891097,388.350935 L675.758058,388.350935 L675.758058,385.360304 L659.891097,385.360304 L659.891097,375.43307 L677.627202,375.43307 L677.627202,372.442439 Z M708.488855,401.51802 L699.558498,389.638568 C704.127518,388.807837 707.450442,385.983352 707.450442,381.123577 C707.450442,375.889972 703.338324,372.442439 696.941696,372.442439 L684.439196,372.442439 L684.439196,401.51802 L687.720583,401.51802 L687.720583,390.22008 L696.027892,390.22008 L704.459811,401.51802 L708.488855,401.51802 Z M704.127518,381.248186 C704.127518,385.028012 701.012277,387.270985 696.65094,387.270985 L687.720583,387.270985 L687.720583,375.474606 L696.692477,375.474606 C701.386106,375.474606 704.127518,377.634507 704.127518,381.248186 L704.127518,381.248186 Z" id="A-CODE-FOR-AMERICA-P" sketch:type="MSShapeGroup"></path>
            </g>
        </g>
    </g>
</svg>