<?xml version="1.0" encoding="utf-8"?>
<!-- Generator: Adobe Illustrator 16.0.0, SVG Export Plug-In . SVG Version: 6.00 Build 0)  -->
<!DOCTYPE svg PUBLIC "-//W3C//DTD SVG 1.1//EN" "http://www.w3.org/Graphics/SVG/1.1/DTD/svg11.dtd">
<svg version="1.1" xmlns="http://www.w3.org/2000/svg" xmlns:xlink="http://www.w3.org/1999/xlink" x="0px" y="0px" width="800px"
	 height="600px" viewBox="0 0 800 600" enable-background="new 0 0 800 600" xml:space="preserve">
<g id="Layer_2" display="none">
	<rect x="-23.5" y="-33.5" display="inline" stroke="#000000" stroke-miterlimit="10" width="850" height="656"/>
</g>
<g id="Layer_1" xmlns:sketch="http://www.bohemiancoding.com/sketch/ns">
	<title>code-island-logo-light</title>
	<desc>Created with Sketch.</desc>
	<g id="Page-1" sketch:type="MSPage">
		<g id="code-island-logo-light" sketch:type="MSArtboardGroup">
			<g id="Group" transform="translate(59.000000, 91.000000)" sketch:type="MSLayerGroup">
				<g id="Lighthouse" sketch:type="MSShapeGroup">
					<path id="Tower" fill="#414F63" d="M109,374.851c20.194,0.064,39.273,0.149,52,0.149c-29.25-98.5-26-250-26-250H57
						c0,0,3.25,151-26,250c12.727-0.206,31.806-0.242,52-0.214v-27.644c0,0,0-25.143,13-25.143s13,25.143,13,25.143V374.851
						L109,374.851z M88,178v35h16v-35H88z"/>
					<path id="Lense" fill="#FEDD44" d="M93,48l-8.5,19v55h22.629V67L99,48H93z M115,48l15,19v55h-19V67l-8-19H115z M77,48
						L62,67.086V122h18.5V67L89,48H77z"/>
					<path id="Cap" fill="#414F63" d="M77,45V34l19-6.5l19,6.5v11H77z"/>
				</g>
				<path id="CODE" sketch:type="MSShapeGroup" fill="#414F63" d="M295.636,240.468l-16.071-16.235
					c-9.021,8.199-17.057,13.447-30.177,13.447c-19.68,0-33.292-16.4-33.292-36.08v-0.328c0-19.68,13.94-35.752,33.292-35.752
					c11.48,0,20.5,4.92,29.356,12.956l16.072-18.532c-10.66-10.496-23.616-17.712-45.265-17.712c-35.26,0-59.86,26.732-59.86,59.368
					v0.328c0,32.965,25.092,59.04,58.876,59.04C270.708,260.968,283.828,253.096,295.636,240.468L295.636,240.468z M432.74,201.6
					v-0.328c0-32.636-25.42-59.04-60.844-59.04c-35.425,0-61.173,26.732-61.173,59.368v0.328c0,32.637,25.42,59.04,60.845,59.04
					C406.992,260.968,432.74,234.236,432.74,201.6L432.74,201.6z M406.336,201.928c0,19.68-14.104,35.752-34.439,35.752
					c-20.337,0-34.769-16.4-34.769-36.08v-0.328c0-19.68,14.104-35.752,34.44-35.752s34.768,16.4,34.768,36.08V201.928z
					 M560.988,201.6v-0.328c0-32.308-24.929-57.072-61.008-57.072h-44.772V259h44.772C536.06,259,560.988,233.908,560.988,201.6
					L560.988,201.6z M534.584,201.928c0,20.336-13.94,34.276-34.604,34.276h-19.517v-69.208h19.517
					c20.663,0,34.604,14.268,34.604,34.604V201.928z M670.868,259v-22.468h-62.32v-24.108h54.12v-22.468h-54.12v-23.288h61.5V144.2
					h-86.592V259H670.868z"/>
				<path id="ISLAND" sketch:type="MSShapeGroup" fill="#414F63" d="M195.568,285.4V375h10.112v-89.6H195.568z M239.728,307.8
					c0-8.192,7.424-14.592,19.072-14.592c9.216,0,17.536,2.944,25.856,9.728l5.888-7.808c-9.088-7.296-18.432-11.008-31.488-11.008
					c-17.023,0-29.439,10.239-29.439,24.575c0,14.849,9.472,21.505,30.08,25.984c18.815,3.969,23.296,8.704,23.296,17.152
					c0,9.088-7.937,15.36-19.968,15.36c-12.416,0-21.376-4.225-30.72-12.673l-6.272,7.425c10.752,9.6,22.399,14.336,36.607,14.336
					c17.792,0,30.593-9.984,30.593-25.473c0-13.823-9.217-21.12-29.185-25.472C244.336,321.111,239.728,316.376,239.728,307.8
					L239.728,307.8z M313.84,375h60.544v-9.344h-50.432V285.4H313.84V375z M435.696,284.76h-9.473L385.392,375h10.368l10.624-23.68
					h48.769L465.648,375h10.88L435.696,284.76z M451.184,342.232h-40.832l20.48-45.696L451.184,342.232z M560.112,357.208
					L503.664,285.4h-9.472V375h9.855v-73.473L561.904,375h8.063v-89.6h-9.855V357.208z M674.032,330.072
					c0-25.344-19.456-44.672-47.616-44.672h-31.104V375h31.104C654.576,375,674.032,355.416,674.032,330.072L674.032,330.072z
					 M663.536,330.328c0,19.968-14.464,35.328-37.12,35.328h-20.992v-70.912h20.992
					C649.072,294.744,663.536,310.359,663.536,330.328L663.536,330.328z"/>
			</g>
		</g>
	</g>
	<path id="A-CODE-FOR-AMERICA-P" sketch:type="MSShapeGroup" display="none" fill="#414F63" d="M102.416,456.21h-2.812L87.482,483
		h3.078l3.154-7.03h14.478l3.116,7.03h3.23L102.416,456.21z M107.014,473.272H94.892l6.08-13.566L107.014,473.272z M153.982,478.782
		l-1.976-1.938c-2.546,2.433-4.94,3.838-8.588,3.838c-5.852,0-10.298-4.825-10.298-11.02s4.408-10.944,10.298-10.944
		c3.61,0,6.118,1.521,8.36,3.648l2.052-2.204c-2.66-2.508-5.548-4.218-10.374-4.218c-7.828,0-13.452,6.193-13.452,13.794
		c0,7.676,5.662,13.718,13.338,13.718C148.168,483.456,151.208,481.594,153.982,478.782L153.982,478.782z M185.18,469.662
		c0-7.372-5.434-13.718-13.528-13.718c-8.094,0-13.604,6.422-13.604,13.794s5.434,13.718,13.528,13.718
		C179.67,483.456,185.18,477.034,185.18,469.662L185.18,469.662z M182.064,469.738c0,6.08-4.332,10.943-10.412,10.943
		s-10.488-4.939-10.488-11.02s4.332-10.944,10.412-10.944S182.064,463.658,182.064,469.738L182.064,469.738z M214.896,469.662
		c0-7.524-5.776-13.262-14.136-13.262h-9.234V483h9.234C209.12,483,214.896,477.186,214.896,469.662L214.896,469.662z
		 M211.78,469.738c0,5.928-4.294,10.487-11.02,10.487h-6.232v-21.052h6.232C207.486,459.174,211.78,463.81,211.78,469.738
		L211.78,469.738z M240.47,456.4h-19.228V483h19.418v-2.736h-16.416v-9.31h14.516v-2.736h-14.516v-9.082h16.226V456.4z
		 M277.216,456.4h-19.114V483h3.002v-11.59h14.402v-2.736h-14.402v-9.5h16.112V456.4z M308.984,469.662
		c0-7.372-5.434-13.718-13.528-13.718c-8.094,0-13.604,6.422-13.604,13.794s5.434,13.718,13.528,13.718
		C303.474,483.456,308.984,477.034,308.984,469.662L308.984,469.662z M305.868,469.738c0,6.08-4.332,10.943-10.412,10.943
		s-10.488-4.939-10.488-11.02s4.332-10.944,10.412-10.944S305.868,463.658,305.868,469.738L305.868,469.738z M337.332,483
		l-8.17-10.868c4.18-0.76,7.22-3.344,7.22-7.79c0-4.788-3.762-7.941-9.614-7.941H315.33V483h3.002v-10.336h7.6L333.646,483H337.332z
		 M333.342,464.456c0,3.458-2.85,5.51-6.84,5.51h-8.17v-10.792h8.208C330.834,459.174,333.342,461.15,333.342,464.456
		L333.342,464.456z M366.858,456.21h-2.812L351.924,483h3.078l3.154-7.03h14.478l3.116,7.03h3.23L366.858,456.21z M371.456,473.272
		h-12.122l6.08-13.566L371.456,473.272z M406.682,461.454V483h3.002v-26.6h-3.04l-9.689,14.516l-9.69-14.516h-3.04V483h2.927
		v-21.508l9.689,14.212h0.152L406.682,461.454z M436.436,456.4h-19.228V483h19.418v-2.736H420.21v-9.31h14.516v-2.736H420.21v-9.082
		h16.226V456.4z M464.67,483l-8.17-10.868c4.18-0.76,7.22-3.344,7.22-7.79c0-4.788-3.762-7.941-9.613-7.941h-11.438V483h3.002
		v-10.336h7.6L460.984,483H464.67z M460.68,464.456c0,3.458-2.85,5.51-6.84,5.51h-8.17v-10.792h8.208
		C458.172,459.174,460.68,461.15,460.68,464.456L460.68,464.456z M470.408,456.4V483h3.002v-26.6H470.408z M504,478.782
		l-1.976-1.938c-2.547,2.433-4.94,3.838-8.589,3.838c-5.852,0-10.298-4.825-10.298-11.02s4.408-10.944,10.298-10.944
		c3.61,0,6.118,1.521,8.36,3.648l2.052-2.204c-2.66-2.508-5.548-4.218-10.374-4.218c-7.827,0-13.451,6.193-13.451,13.794
		c0,7.676,5.661,13.718,13.338,13.718C498.186,483.456,501.226,481.594,504,478.782L504,478.782z M521.898,456.21h-2.812
		L506.964,483h3.078l3.154-7.03h14.478l3.116,7.03h3.229L521.898,456.21z M526.496,473.272h-12.122l6.08-13.566L526.496,473.272z
		 M570.576,464.874c0-5.282-3.952-8.474-9.956-8.474h-9.956V483h3.002v-9.386h6.46C565.788,473.614,570.576,470.65,570.576,464.874
		L570.576,464.874z M567.536,464.988c0,3.534-2.888,5.89-7.296,5.89h-6.574v-11.704h6.726
		C564.686,459.174,567.536,461.15,567.536,464.988L567.536,464.988z M588.702,456.21h-2.812L573.768,483h3.078l3.154-7.03h14.479
		l3.115,7.03h3.23L588.702,456.21z M593.3,473.272h-12.122l6.08-13.566L593.3,473.272z M628.07,483l-8.17-10.868
		c4.18-0.76,7.22-3.344,7.22-7.79c0-4.788-3.762-7.941-9.614-7.941h-11.438V483h3.002v-10.336h7.6L624.384,483H628.07z
		 M624.08,464.456c0,3.458-2.85,5.51-6.84,5.51h-8.17v-10.792h8.208C621.572,459.174,624.08,461.15,624.08,464.456L624.08,464.456z
		 M643.612,459.174h8.93V456.4h-20.9v2.773h8.931V483h3.04V459.174z M677.736,477.718L660.979,456.4h-2.812V483h2.926v-21.812
		L678.268,483h2.395v-26.6h-2.926V477.718z M707.414,456.4h-19.229V483h19.418v-2.736h-16.416v-9.31h14.517v-2.736h-14.517v-9.082
		h16.227V456.4z M735.648,483l-8.17-10.868c4.18-0.76,7.22-3.344,7.22-7.79c0-4.788-3.763-7.941-9.614-7.941h-11.438V483h3.002
		v-10.336h7.6L731.962,483H735.648z M731.658,464.456c0,3.458-2.851,5.51-6.84,5.51h-8.17v-10.792h8.208
		C729.15,459.174,731.658,461.15,731.658,464.456L731.658,464.456z"/>
</g>
</svg>
