<?xml version="1.0" encoding="UTF-8" standalone="no"?>
<svg width="800px" height="600px" viewBox="0 0 800 600" version="1.1" xmlns="http://www.w3.org/2000/svg" xmlns:xlink="http://www.w3.org/1999/xlink" xmlns:sketch="http://www.bohemiancoding.com/sketch/ns">
    <!-- Generator: Sketch 3.1.1 (8761) - http://www.bohemiancoding.com/sketch -->
    <title>code-island-logo-light</title>
    <desc>Created with Sketch.</desc>
    <defs></defs>
    <g id="Page-1" stroke="none" stroke-width="1" fill="none" fill-rule="evenodd" sketch:type="MSPage">
        <g id="code-island-logo-light" sketch:type="MSArtboardGroup">
            <g id="Group" sketch:type="MSLayerGroup" transform="translate(59.000000, 91.000000)">
                <g id="Lighthouse" sketch:type="MSShapeGroup">
                    <path d="M109,347.850173 C129.19404,347.91503 148.273039,347.999998 161,348 C131.75,249.5 135,98 135,98 L57,98 C57,98 60.25,249 31,348 C43.7269622,347.793883 62.805961,347.7577 83,347.786374 L83,320.142857 C83,320.142857 83,295 96,295 C109,295 109,320.142857 109,320.142857 L109,347.850173 L109,347.850173 Z M88,151 L88,186 L104,186 L104,151 L88,151 Z" id="Tower" fill="#FFFFFF"></path>
                    <path d="M93,21 L84.5,40 L84.5,95 L107.129536,95 L107.129536,40 L99,21 L93,21 Z M115,21 L130,40 L130,95 L111,95 L111,40 L103,21 L115,21 Z M77,21 L62,40.0860882 L62,95 L80.5,95 L80.5,40 L89,21 L77,21 Z" id="Lense" fill="#FEDD44"></path>
                    <path d="M77,18 L77,7 L96,0.5 L115,7 L115,18 L77,18 Z" id="Cap" fill="#FFFFFF"></path>
                </g>
                <path d="M295.636,213.468 L279.564,197.232 C270.544,205.432 262.508,210.68 249.388,210.68 C229.708,210.68 216.096,194.28 216.096,174.6 L216.096,174.272 C216.096,154.592 230.036,138.52 249.388,138.52 C260.868,138.52 269.888,143.44 278.744,151.476 L294.816,132.944 C284.156,122.448 271.2,115.232 249.552,115.232 C214.292,115.232 189.692,141.964 189.692,174.6 L189.692,174.928 C189.692,207.892 214.784,233.968 248.568,233.968 C270.708,233.968 283.828,226.096 295.636,213.468 L295.636,213.468 Z M432.74,174.6 L432.74,174.272 C432.74,141.636 407.32,115.232 371.896,115.232 C336.472,115.232 310.724,141.964 310.724,174.6 L310.724,174.928 C310.724,207.564 336.144,233.968 371.568,233.968 C406.992,233.968 432.74,207.236 432.74,174.6 L432.74,174.6 Z M406.336,174.928 C406.336,194.608 392.232,210.68 371.896,210.68 C351.56,210.68 337.128,194.28 337.128,174.6 L337.128,174.272 C337.128,154.592 351.232,138.52 371.568,138.52 C391.904,138.52 406.336,154.92 406.336,174.6 L406.336,174.928 Z M560.988,174.6 L560.988,174.272 C560.988,141.964 536.06,117.2 499.98,117.2 L455.208,117.2 L455.208,232 L499.98,232 C536.06,232 560.988,206.908 560.988,174.6 L560.988,174.6 Z M534.584,174.928 C534.584,195.264 520.644,209.204 499.98,209.204 L480.464,209.204 L480.464,139.996 L499.98,139.996 C520.644,139.996 534.584,154.264 534.584,174.6 L534.584,174.928 Z M670.868,232 L670.868,209.532 L608.548,209.532 L608.548,185.424 L662.668,185.424 L662.668,162.956 L608.548,162.956 L608.548,139.668 L670.048,139.668 L670.048,117.2 L583.456,117.2 L583.456,232 L670.868,232 Z" id="CODE" fill="#FFFFFF" sketch:type="MSShapeGroup"></path>
                <path d="M195.568,258.4 L195.568,348 L205.68,348 L205.68,258.4 L195.568,258.4 Z M239.728,280.8 C239.728,272.608 247.152,266.208 258.8,266.208 C268.016,266.208 276.336,269.152 284.656,275.936 L290.544,268.128 C281.456,260.832 272.112,257.12 259.056,257.12 C242.032,257.12 229.616,267.36 229.616,281.696 C229.616,296.544 239.088,303.2 259.696,307.68 C278.512,311.648 282.992,316.384 282.992,324.832 C282.992,333.92 275.056,340.192 263.024,340.192 C250.608,340.192 241.648,335.968 232.304,327.52 L226.032,334.944 C236.784,344.544 248.432,349.28 262.64,349.28 C280.432,349.28 293.232,339.296 293.232,323.808 C293.232,309.984 284.016,302.688 264.048,298.336 C244.336,294.112 239.728,289.376 239.728,280.8 L239.728,280.8 Z M313.84,348 L374.384,348 L374.384,338.656 L323.952,338.656 L323.952,258.4 L313.84,258.4 L313.84,348 Z M435.696,257.76 L426.224,257.76 L385.392,348 L395.76,348 L406.384,324.32 L455.152,324.32 L465.648,348 L476.528,348 L435.696,257.76 Z M451.184,315.232 L410.352,315.232 L430.832,269.536 L451.184,315.232 Z M560.112,330.208 L503.664,258.4 L494.192,258.4 L494.192,348 L504.048,348 L504.048,274.528 L561.904,348 L569.968,348 L569.968,258.4 L560.112,258.4 L560.112,330.208 Z M674.032,303.072 C674.032,277.728 654.576,258.4 626.416,258.4 L595.312,258.4 L595.312,348 L626.416,348 C654.576,348 674.032,328.416 674.032,303.072 L674.032,303.072 Z M663.536,303.328 C663.536,323.296 649.072,338.656 626.416,338.656 L605.424,338.656 L605.424,267.744 L626.416,267.744 C649.072,267.744 663.536,283.36 663.536,303.328 L663.536,303.328 Z" id="ISLAND" fill="#FFFFFF" sketch:type="MSShapeGroup"></path>
                <path d="M40.416,384.21 L37.604,384.21 L25.482,411 L28.56,411 L31.714,403.97 L46.192,403.97 L49.308,411 L52.538,411 L40.416,384.21 Z M45.014,401.272 L32.892,401.272 L38.972,387.706 L45.014,401.272 Z M91.982,406.782 L90.006,404.844 C87.46,407.276 85.066,408.682 81.418,408.682 C75.566,408.682 71.12,403.856 71.12,397.662 C71.12,391.468 75.528,386.718 81.418,386.718 C85.028,386.718 87.536,388.238 89.778,390.366 L91.83,388.162 C89.17,385.654 86.282,383.944 81.456,383.944 C73.628,383.944 68.004,390.138 68.004,397.738 C68.004,405.414 73.666,411.456 81.342,411.456 C86.168,411.456 89.208,409.594 91.982,406.782 L91.982,406.782 Z M123.18,397.662 C123.18,390.29 117.746,383.944 109.652,383.944 C101.558,383.944 96.048,390.366 96.048,397.738 C96.048,405.11 101.482,411.456 109.576,411.456 C117.67,411.456 123.18,405.034 123.18,397.662 L123.18,397.662 Z M120.064,397.738 C120.064,403.818 115.732,408.682 109.652,408.682 C103.572,408.682 99.164,403.742 99.164,397.662 C99.164,391.582 103.496,386.718 109.576,386.718 C115.656,386.718 120.064,391.658 120.064,397.738 L120.064,397.738 Z M152.896,397.662 C152.896,390.138 147.12,384.4 138.76,384.4 L129.526,384.4 L129.526,411 L138.76,411 C147.12,411 152.896,405.186 152.896,397.662 L152.896,397.662 Z M149.78,397.738 C149.78,403.666 145.486,408.226 138.76,408.226 L132.528,408.226 L132.528,387.174 L138.76,387.174 C145.486,387.174 149.78,391.81 149.78,397.738 L149.78,397.738 Z M178.47,384.4 L159.242,384.4 L159.242,411 L178.66,411 L178.66,408.264 L162.244,408.264 L162.244,398.954 L176.76,398.954 L176.76,396.218 L162.244,396.218 L162.244,387.136 L178.47,387.136 L178.47,384.4 Z M215.216,384.4 L196.102,384.4 L196.102,411 L199.104,411 L199.104,399.41 L213.506,399.41 L213.506,396.674 L199.104,396.674 L199.104,387.174 L215.216,387.174 L215.216,384.4 Z M246.984,397.662 C246.984,390.29 241.55,383.944 233.456,383.944 C225.362,383.944 219.852,390.366 219.852,397.738 C219.852,405.11 225.286,411.456 233.38,411.456 C241.474,411.456 246.984,405.034 246.984,397.662 L246.984,397.662 Z M243.868,397.738 C243.868,403.818 239.536,408.682 233.456,408.682 C227.376,408.682 222.968,403.742 222.968,397.662 C222.968,391.582 227.3,386.718 233.38,386.718 C239.46,386.718 243.868,391.658 243.868,397.738 L243.868,397.738 Z M275.332,411 L267.162,400.132 C271.342,399.372 274.382,396.788 274.382,392.342 C274.382,387.554 270.62,384.4 264.768,384.4 L253.33,384.4 L253.33,411 L256.332,411 L256.332,400.664 L263.932,400.664 L271.646,411 L275.332,411 Z M271.342,392.456 C271.342,395.914 268.492,397.966 264.502,397.966 L256.332,397.966 L256.332,387.174 L264.54,387.174 C268.834,387.174 271.342,389.15 271.342,392.456 L271.342,392.456 Z M304.858,384.21 L302.046,384.21 L289.924,411 L293.002,411 L296.156,403.97 L310.634,403.97 L313.75,411 L316.98,411 L304.858,384.21 Z M309.456,401.272 L297.334,401.272 L303.414,387.706 L309.456,401.272 Z M344.682,389.454 L344.682,411 L347.684,411 L347.684,384.4 L344.644,384.4 L334.954,398.916 L325.264,384.4 L322.224,384.4 L322.224,411 L325.15,411 L325.15,389.492 L334.84,403.704 L334.992,403.704 L344.682,389.454 Z M374.436,384.4 L355.208,384.4 L355.208,411 L374.626,411 L374.626,408.264 L358.21,408.264 L358.21,398.954 L372.726,398.954 L372.726,396.218 L358.21,396.218 L358.21,387.136 L374.436,387.136 L374.436,384.4 Z M402.67,411 L394.5,400.132 C398.68,399.372 401.72,396.788 401.72,392.342 C401.72,387.554 397.958,384.4 392.106,384.4 L380.668,384.4 L380.668,411 L383.67,411 L383.67,400.664 L391.27,400.664 L398.984,411 L402.67,411 Z M398.68,392.456 C398.68,395.914 395.83,397.966 391.84,397.966 L383.67,397.966 L383.67,387.174 L391.878,387.174 C396.172,387.174 398.68,389.15 398.68,392.456 L398.68,392.456 Z M408.408,384.4 L408.408,411 L411.41,411 L411.41,384.4 L408.408,384.4 Z M442,406.782 L440.024,404.844 C437.478,407.276 435.084,408.682 431.436,408.682 C425.584,408.682 421.138,403.856 421.138,397.662 C421.138,391.468 425.546,386.718 431.436,386.718 C435.046,386.718 437.554,388.238 439.796,390.366 L441.848,388.162 C439.188,385.654 436.3,383.944 431.474,383.944 C423.646,383.944 418.022,390.138 418.022,397.738 C418.022,405.414 423.684,411.456 431.36,411.456 C436.186,411.456 439.226,409.594 442,406.782 L442,406.782 Z M459.898,384.21 L457.086,384.21 L444.964,411 L448.042,411 L451.196,403.97 L465.674,403.97 L468.79,411 L472.02,411 L459.898,384.21 Z M464.496,401.272 L452.374,401.272 L458.454,387.706 L464.496,401.272 Z M508.576,392.874 C508.576,387.592 504.624,384.4 498.62,384.4 L488.664,384.4 L488.664,411 L491.666,411 L491.666,401.614 L498.126,401.614 C503.788,401.614 508.576,398.65 508.576,392.874 L508.576,392.874 Z M505.536,392.988 C505.536,396.522 502.648,398.878 498.24,398.878 L491.666,398.878 L491.666,387.174 L498.392,387.174 C502.686,387.174 505.536,389.15 505.536,392.988 L505.536,392.988 Z M526.702,384.21 L523.89,384.21 L511.768,411 L514.846,411 L518,403.97 L532.478,403.97 L535.594,411 L538.824,411 L526.702,384.21 Z M531.3,401.272 L519.178,401.272 L525.258,387.706 L531.3,401.272 Z M566.07,411 L557.9,400.132 C562.08,399.372 565.12,396.788 565.12,392.342 C565.12,387.554 561.358,384.4 555.506,384.4 L544.068,384.4 L544.068,411 L547.07,411 L547.07,400.664 L554.67,400.664 L562.384,411 L566.07,411 Z M562.08,392.456 C562.08,395.914 559.23,397.966 555.24,397.966 L547.07,397.966 L547.07,387.174 L555.278,387.174 C559.572,387.174 562.08,389.15 562.08,392.456 L562.08,392.456 Z M581.612,387.174 L590.542,387.174 L590.542,384.4 L569.642,384.4 L569.642,387.174 L578.572,387.174 L578.572,411 L581.612,411 L581.612,387.174 Z M615.736,405.718 L598.978,384.4 L596.166,384.4 L596.166,411 L599.092,411 L599.092,389.188 L616.268,411 L618.662,411 L618.662,384.4 L615.736,384.4 L615.736,405.718 Z M645.414,384.4 L626.186,384.4 L626.186,411 L645.604,411 L645.604,408.264 L629.188,408.264 L629.188,398.954 L643.704,398.954 L643.704,396.218 L629.188,396.218 L629.188,387.136 L645.414,387.136 L645.414,384.4 Z M673.648,411 L665.478,400.132 C669.658,399.372 672.698,396.788 672.698,392.342 C672.698,387.554 668.936,384.4 663.084,384.4 L651.646,384.4 L651.646,411 L654.648,411 L654.648,400.664 L662.248,400.664 L669.962,411 L673.648,411 Z M669.658,392.456 C669.658,395.914 666.808,397.966 662.818,397.966 L654.648,397.966 L654.648,387.174 L662.856,387.174 C667.15,387.174 669.658,389.15 669.658,392.456 L669.658,392.456 Z" id="A-CODE-FOR-AMERICA-P" fill="#FFFFFF" sketch:type="MSShapeGroup"></path>
            </g>
        </g>
    </g>
</svg>